<svg width="141.901" height="72.401" viewBox="0 0 141.901 72.401" xmlns="http://www.w3.org/2000/svg"><g id="svgGroup" stroke-linecap="round" fill-rule="evenodd" font-size="9pt" stroke="#191B3C" stroke-width="0.25mm" fill="#191B3C" style="stroke:#191B3C;stroke-width:0.25mm;fill:#191B3C"><path d="M 38.6 71.201 L 22.4 71.201 L 22.4 14.401 L 0 14.401 L 0 1.201 L 61 1.201 L 61 14.401 L 38.6 14.401 L 38.6 71.201 Z" id="0" vector-effect="non-scaling-stroke"/><path d="M 93.345 71.238 A 44.799 44.799 0 0 0 103.7 72.401 A 47.624 47.624 0 0 0 106.98 72.289 A 40.236 40.236 0 0 0 118.85 69.701 A 41.798 41.798 0 0 0 118.958 69.658 A 36.938 36.938 0 0 0 130.95 62.151 Q 136.1 57.301 139 50.651 A 33.759 33.759 0 0 0 140.336 47.037 A 36.815 36.815 0 0 0 141.9 36.201 A 40.94 40.94 0 0 0 141.78 33.047 A 34.192 34.192 0 0 0 139 21.751 Q 136.1 15.201 130.95 10.301 Q 125.8 5.401 118.85 2.701 A 38.152 38.152 0 0 0 113.448 1.055 A 44.509 44.509 0 0 0 103.6 0.001 A 47.866 47.866 0 0 0 100.567 0.095 A 40.785 40.785 0 0 0 88.4 2.701 Q 81.4 5.401 76.2 10.301 Q 71 15.201 68.15 21.801 A 33.63 33.63 0 0 0 66.647 26.043 A 37.397 37.397 0 0 0 65.3 36.201 A 41.233 41.233 0 0 0 65.37 38.609 A 35.187 35.187 0 0 0 68.15 50.601 Q 71 57.201 76.15 62.101 A 34.709 34.709 0 0 0 77.806 63.578 A 36.797 36.797 0 0 0 88.35 69.701 A 39.237 39.237 0 0 0 93.345 71.238 Z M 103.6 58.601 A 24.103 24.103 0 0 0 109.38 57.928 A 21.019 21.019 0 0 0 112.25 57.001 Q 116.2 55.401 119.2 52.401 Q 122.2 49.401 123.85 45.301 A 22.883 22.883 0 0 0 125.362 39.016 A 28.113 28.113 0 0 0 125.5 36.201 A 26.267 26.267 0 0 0 124.949 30.72 A 21.882 21.882 0 0 0 123.85 27.101 Q 122.2 23.001 119.25 20.001 Q 116.3 17.001 112.3 15.401 A 22.659 22.659 0 0 0 105.195 13.848 A 26.606 26.606 0 0 0 103.6 13.801 A 24.103 24.103 0 0 0 97.82 14.473 A 21.019 21.019 0 0 0 94.95 15.401 Q 91 17.001 88 20.001 Q 85 23.001 83.35 27.101 A 22.883 22.883 0 0 0 81.838 33.385 A 28.113 28.113 0 0 0 81.7 36.201 A 25.526 25.526 0 0 0 82.411 42.309 A 22.445 22.445 0 0 0 83.35 45.251 A 21.554 21.554 0 0 0 87.06 51.435 A 20.36 20.36 0 0 0 87.95 52.401 Q 90.9 55.401 94.9 57.001 A 22.659 22.659 0 0 0 102.005 58.553 A 26.606 26.606 0 0 0 103.6 58.601 Z" id="1" vector-effect="non-scaling-stroke"/></g></svg>